<?xml version="1.0" encoding="UTF-8"?>
<svg id="Layer_1" data-name="Layer 1" xmlns="http://www.w3.org/2000/svg" version="1.1" viewBox="0 0 500 500">
  <defs>
    <style>
      .cls-1 {
        fill: #000;
        stroke-width: 0px;
      }
    </style>
  </defs>
  <path class="cls-1" d="M169,438.9v2.3h180.8v-2.3c0-8.4-7.2-15.1-16-15.1h-148.7c-8.9,0-16,6.8-16,15.1h0Z"/>
  <path class="cls-1" d="M366.4,453.8h-214c-9.3,0-16.9,7.6-16.9,16.9v9.5c0,2,1.6,3.6,3.6,3.6h240.6c2,0,3.6-1.6,3.6-3.6v-9.5c0-9.3-7.6-16.9-16.9-16.9h0Z"/>
  <path class="cls-1" d="M189.7,299.4H34.9c11.1,32,41.6,55,77.4,55s66.3-23,77.4-55h0Z"/>
  <path class="cls-1" d="M328.3,299.4c11.1,32,41.6,55,77.4,55s66.3-23,77.4-55h-154.8Z"/>
  <path class="cls-1" d="M59.8,286.8l46.2-132.2v132.2h12.5v-132.2l46.2,132.2h13.3l-59.1-169.1h96.6c0,.1,0,.2.1.3,4.7,12.4,14.5,22.2,26.9,26.9.1,0,.2,0,.3.1v266.3h33.1V144.7c.1,0,.2,0,.3-.1,12-4.8,21.5-14.5,26.1-26.6,0-.1,0-.2.1-.3h96.6l-59.1,169.1h13.3l46.2-132.2v132.2h12.5v-132.2l46.2,132.2h13.3l-59.1-169.1h28.5c4.6,0,8.7-1.9,11.7-4.8s4.8-7.1,4.8-11.7c0-9.1-7.4-16.6-16.6-16.6h-138.6c0-.1,0-.2-.1-.3-4.7-11.8-14.1-21.2-25.9-25.9-.1,0-.2,0-.3-.1v-30.3c0-4.6-1.9-8.7-4.8-11.7-3-3-7.1-4.8-11.7-4.8-9.1,0-16.6,7.4-16.6,16.6v30c-.1,0-.2,0-.3.1-12.1,4.6-21.8,14.1-26.6,26.1,0,.1,0,.2-.1.3H78c-9.1,0-16.6,7.4-16.6,16.6s7.4,16.6,16.6,16.6h27.7l-59.1,169.1h13.3-.1ZM243,95.1c1.8-4.4,5.4-8,9.9-9.7,1.9-.7,4-1.1,6.1-1.1s4.4.4,6.4,1.2c4.4,1.8,7.9,5.2,9.6,9.6.8,2,1.2,4.1,1.2,6.4s-.4,4.2-1.1,6.1c-1.7,4.5-5.2,8.1-9.7,9.9-2,.8-4.1,1.2-6.4,1.2s-4.2-.4-6.1-1.1c-4.6-1.8-8.2-5.4-10-10-.7-1.9-1.1-4-1.1-6.1s.4-4.4,1.2-6.4h0Z"/>
</svg>