<?xml version="1.0" encoding="UTF-8"?>
<svg id="Layer_1" data-name="Layer 1" xmlns="http://www.w3.org/2000/svg" version="1.1" xmlns:xlink="http://www.w3.org/1999/xlink" viewBox="0 0 500 500">
  <defs>
    <style>
      .cls-1 {
        fill: #000;
      }

      .cls-1, .cls-2 {
        stroke-width: 0px;
      }

      .cls-3 {
        clip-path: url(#clippath-2);
      }

      .cls-4 {
        clip-path: url(#clippath-6);
      }

      .cls-2 {
        fill: none;
      }

      .cls-5 {
        clip-path: url(#clippath-7);
      }

      .cls-6 {
        clip-path: url(#clippath-1);
      }

      .cls-7 {
        clip-path: url(#clippath-4);
      }

      .cls-8 {
        clip-path: url(#clippath-9);
      }

      .cls-9 {
        clip-path: url(#clippath);
      }

      .cls-10 {
        clip-path: url(#clippath-3);
      }

      .cls-11 {
        clip-path: url(#clippath-8);
      }

      .cls-12 {
        clip-path: url(#clippath-5);
      }

      .cls-13 {
        clip-path: url(#clippath-10);
      }
    </style>
    <clipPath id="clippath">
      <polygon class="cls-2" points="290.9 499 9.3 130.2 209 1.7 490.7 370.5 290.9 499"/>
    </clipPath>
    <clipPath id="clippath-1">
      <polygon class="cls-2" points="290.9 499 9.3 130.2 209 1.7 490.7 370.5 290.9 499"/>
    </clipPath>
    <clipPath id="clippath-2">
      <rect class="cls-2" x="195.3" y="1" width="18.7" height="20.6"/>
    </clipPath>
    <clipPath id="clippath-3">
      <polygon class="cls-2" points="290.9 499 9.3 130.2 209 1.7 490.7 370.5 290.9 499"/>
    </clipPath>
    <clipPath id="clippath-4">
      <polygon class="cls-2" points="290.9 499 9.3 130.2 209 1.7 490.7 370.5 290.9 499"/>
    </clipPath>
    <clipPath id="clippath-5">
      <rect class="cls-2" x="154.1" y="28.4" width="112.1" height="404.9"/>
    </clipPath>
    <clipPath id="clippath-6">
      <polygon class="cls-2" points="290.9 499 9.3 130.2 209 1.7 490.7 370.5 290.9 499"/>
    </clipPath>
    <clipPath id="clippath-7">
      <polygon class="cls-2" points="290.9 499 9.3 130.2 209 1.7 490.7 370.5 290.9 499"/>
    </clipPath>
    <clipPath id="clippath-8">
      <rect class="cls-2" x="266.3" y="436.8" width="22.4" height="17.2"/>
    </clipPath>
    <clipPath id="clippath-9">
      <polygon class="cls-2" points="290.9 499 9.3 130.2 209 1.7 490.7 370.5 290.9 499"/>
    </clipPath>
    <clipPath id="clippath-10">
      <polygon class="cls-2" points="290.9 499 9.3 130.2 209 1.7 490.7 370.5 290.9 499"/>
    </clipPath>
  </defs>
  <g class="cls-9">
    <g class="cls-6">
      <path class="cls-1" d="M270.1,470l34.9,13.3c2.1.8,4.3,1,6.6.6,2.3-.4,4.2-1.4,5.8-2.9,1.6-1.5,2.6-3.3,3-5.4.4-2.1.1-4.1-.8-6l-15.5-31.6c-.4-.7-.9-1.3-1.5-1.8-.7-.5-1.5-.8-2.3-.9s-1.7,0-2.5.2-1.5.7-2.1,1.2c-1.1,1-1.6,2.2-1.5,3.6l.7,10.6c.2,2.9-.8,5.4-3,7.4-2.2,2-4.8,3-7.9,3l-11.7-.3c-1.5,0-2.8.4-3.9,1.5-.3.3-.5.6-.8.9-.2.4-.4.7-.5,1.1-.1.4-.2.8-.2,1.1s0,.8.1,1.2c0,.4.2.8.4,1.1.2.4.4.7.7,1s.6.6.9.8c.4.2.7.4,1.1.6h0Z"/>
    </g>
  </g>
  <g class="cls-3">
    <g class="cls-10">
      <g class="cls-7">
        <path class="cls-1" d="M210.4,5.7c.8,1.3.8,2.6,0,4,0,0-1.9,3.1-4.9,8.8-.3.5-.6.9-1.1,1.3-.4.4-.9.6-1.5.8s-1.1.2-1.7.2-1.1-.2-1.7-.4-1-.6-1.4-1c-.4-.4-.7-.9-.9-1.4s-.3-1-.2-1.6.2-1.1.4-1.5c3.1-5.9,5.1-9.1,5.2-9.2.3-.5.7-.9,1.1-1.2.5-.3,1-.6,1.6-.7.6-.1,1.1-.2,1.7-.1s1.1.2,1.6.5c.7.4,1.3.9,1.7,1.6h0Z"/>
      </g>
    </g>
  </g>
  <g class="cls-12">
    <g class="cls-4">
      <g class="cls-5">
        <path class="cls-1" d="M196.6,32.9c.7,1.1.7,2.3.2,3.4-2.7,6-5.2,12.2-7.7,18.5-.2.5-.5,1-.9,1.3-.4.4-.9.7-1.4,1-.5.2-1.1.4-1.7.4s-1.1,0-1.7-.2-1.1-.4-1.5-.8c-.4-.4-.8-.8-1-1.3s-.4-1-.4-1.5,0-1.1.2-1.6c2.5-6.4,5.1-12.8,7.8-18.8.2-.5.5-.9.9-1.3.4-.4.9-.7,1.4-.9.5-.2,1.1-.3,1.7-.3s1.1.1,1.7.3c1,.4,1.7,1,2.2,1.8h0ZM182.1,70.6c.6,1,.7,2,.3,3.1-2.1,6.2-4,12.7-5.7,19.1-.1.5-.4,1-.7,1.4-.4.4-.8.8-1.3,1.1-.5.3-1.1.5-1.6.5-.6,0-1.1,0-1.7,0-.6-.1-1.1-.3-1.6-.7-.5-.3-.9-.7-1.2-1.2-.3-.5-.5-.9-.6-1.5s0-1.1,0-1.6c1.8-6.5,3.7-13,5.8-19.4.2-.5.4-1,.8-1.4.4-.4.8-.8,1.3-1s1.1-.4,1.6-.5c.6,0,1.1,0,1.7.2,1.2.3,2.1,1,2.6,2h0ZM171.6,109.3c.5.8.6,1.7.4,2.7-1.4,6.5-2.6,13-3.7,19.5,0,.5-.3,1-.6,1.5-.3.5-.7.8-1.1,1.2s-1,.6-1.6.7c-.6.1-1.1.1-1.7,0-.6,0-1.1-.2-1.6-.5-.5-.3-.9-.6-1.3-1.1s-.6-.9-.7-1.4c-.1-.5-.2-1.1,0-1.6,1.1-6.6,2.3-13.3,3.7-19.9.1-.5.3-1,.6-1.5.3-.4.7-.8,1.2-1.1.5-.3,1-.5,1.6-.6.6,0,1.1,0,1.7,0,1.4.2,2.4.9,3.1,2.1h0ZM165.3,148.8c.4.7.6,1.5.5,2.3-.7,6.6-1.2,13.2-1.5,19.7,0,.5-.2,1-.4,1.5s-.6.9-1,1.3c-.4.4-.9.6-1.5.8-.5.2-1.1.3-1.7.2s-1.1-.1-1.7-.4-1-.5-1.4-.9-.7-.8-.9-1.3c-.2-.5-.3-1-.3-1.5.3-6.7.8-13.4,1.5-20.1,0-.5.2-1,.5-1.5.3-.5.6-.9,1.1-1.2.4-.4,1-.6,1.5-.8.6-.1,1.1-.2,1.7-.1,1.6.1,2.7.9,3.4,2.1h0ZM163.4,188.7c.4.6.5,1.2.5,1.9,0,6.6.3,13.2.8,19.7,0,.5,0,1.1-.2,1.6-.2.5-.5,1-.9,1.4-.4.4-.9.7-1.4.9-.5.2-1.1.4-1.7.4-.6,0-1.1,0-1.7-.2s-1.1-.4-1.5-.8c-.4-.4-.8-.8-1-1.3-.3-.5-.4-1-.4-1.5-.4-6.7-.7-13.4-.8-20.1,0-.5,0-1.1.3-1.6s.5-.9.9-1.3c.4-.4.9-.7,1.4-.9.5-.2,1.1-.3,1.7-.3,1.8,0,3.1.7,3.9,2.1h0ZM166.1,228.5c.3.5.4.9.5,1.4.9,6.5,1.9,13.1,3.1,19.5.1.5.1,1.1,0,1.6-.1.5-.4,1-.7,1.4s-.7.8-1.2,1.1-1,.5-1.6.6c-.6,0-1.1,0-1.7,0-.6-.1-1.1-.3-1.6-.6s-.9-.7-1.2-1.1c-.3-.4-.5-.9-.6-1.5-1.3-6.6-2.4-13.3-3.2-20,0-.5,0-1.1.1-1.6.2-.5.4-1,.8-1.4.4-.4.8-.8,1.3-1,.5-.2,1.1-.4,1.6-.5.9-.1,1.7,0,2.5.4s1.4.9,1.9,1.6h0ZM173.8,267.8c.2.3.3.6.4,1,1.6,6.4,3.5,12.8,5.6,19,.2.5.2,1,.2,1.6s-.2,1-.5,1.5c-.3.5-.6.9-1.1,1.2s-1,.6-1.5.7c-.6.1-1.1.2-1.7.1s-1.1-.2-1.6-.5-1-.6-1.3-1c-.4-.4-.6-.9-.8-1.4-2.1-6.4-4-13-5.7-19.5-.1-.5-.2-1.1,0-1.6.1-.5.3-1,.6-1.5s.7-.8,1.2-1.1c.5-.3,1-.5,1.6-.7,1-.2,1.9-.1,2.8.2.9.4,1.6,1,2.1,1.8h0ZM263.6,425.4c.5.8.6,1.7.4,2.6-.2.9-.7,1.7-1.5,2.3-.4.4-.9.6-1.5.8s-1.1.2-1.7.2-1.1-.2-1.6-.4c-.5-.2-1-.6-1.4-1-4.8-5.1-9.5-10.3-14-15.6-.4-.4-.6-.9-.8-1.4-.2-.5-.2-1-.1-1.6s.2-1,.5-1.5.7-.9,1.1-1.2,1-.6,1.5-.7c.6-.1,1.1-.2,1.7-.1.6,0,1.1.2,1.6.5.5.3.9.6,1.3,1,4.4,5.1,9,10.2,13.7,15.2.2.2.4.5.5.7h0s0,0,0,0ZM186.2,306c.1.2.2.4.2.5,2.4,6.1,5.1,12.3,7.9,18.3.2.5.4,1,.4,1.5,0,.5-.1,1.1-.3,1.6s-.5,1-.9,1.3-.9.7-1.4.9c-.5.2-1.1.3-1.7.3-.6,0-1.2,0-1.7-.3-.5-.2-1-.5-1.4-.9s-.7-.8-1-1.3c-2.9-6.2-5.6-12.5-8.1-18.8-.2-.5-.3-1-.3-1.5,0-.5.2-1.1.4-1.5s.6-.9,1-1.3.9-.6,1.5-.8c1-.4,2.1-.4,3.1,0,1,.4,1.8,1,2.3,1.9h0s0,0,0,0ZM236.8,394c.5.9.7,1.9.4,2.9s-.9,1.8-1.8,2.4c-.5.3-1,.5-1.6.7s-1.1.1-1.7,0c-.6,0-1.1-.3-1.6-.6-.5-.3-.9-.7-1.2-1.1-4.2-5.5-8.4-11.1-12.3-16.7-.3-.5-.5-1-.6-1.5-.1-.5,0-1.1,0-1.6.1-.5.4-1,.7-1.5.3-.4.7-.8,1.2-1.1s1-.5,1.6-.6c.6,0,1.1,0,1.7,0s1.1.3,1.6.6.9.7,1.2,1.1c3.8,5.5,7.8,11,12,16.4.1.1.2.2.3.4h0s0,0,0,0ZM203.3,342.7h0c3.1,5.9,6.6,11.8,10.1,17.5.3.5.5,1,.5,1.5,0,.5,0,1.1-.1,1.6-.2.5-.4,1-.8,1.4-.4.4-.8.8-1.3,1s-1.1.4-1.6.5-1.1,0-1.7-.1c-.6-.1-1.1-.4-1.5-.7-.5-.3-.8-.7-1.1-1.2-3.6-5.8-7.1-11.8-10.3-17.8-.3-.5-.4-1-.4-1.5,0-.5,0-1.1.2-1.6.2-.5.5-1,.9-1.4.4-.4.8-.7,1.4-1,.5-.2,1.1-.4,1.6-.4.6,0,1.1,0,1.7.2.5.2,1,.4,1.5.7.4.3.8.7,1.1,1.2h0s0,0,0,0Z"/>
      </g>
    </g>
  </g>
  <g class="cls-11">
    <g class="cls-8">
      <g class="cls-13">
        <path class="cls-1" d="M285.8,447.4c.5.8.6,1.6.5,2.5s-.6,1.6-1.3,2.3c-.4.4-.9.7-1.4.9s-1.1.3-1.7.3c-.6,0-1.1-.1-1.7-.3-.5-.2-1-.5-1.4-.9-2.6-2.4-5.2-4.9-7.7-7.3-.4-.4-.7-.8-.9-1.3-.2-.5-.3-1-.3-1.5s.1-1.1.4-1.5c.2-.5.6-.9,1-1.3.4-.4.9-.7,1.5-.8.5-.2,1.1-.3,1.7-.3s1.1.1,1.7.4c.5.2,1,.5,1.4.9,2.5,2.4,5,4.8,7.6,7.2.3.3.5.6.8.9h0Z"/>
      </g>
    </g>
  </g>
</svg>