<?xml version="1.0" encoding="UTF-8"?>
<svg id="Layer_1" data-name="Layer 1" xmlns="http://www.w3.org/2000/svg" version="1.1" viewBox="0 0 500 500">
  <defs>
    <style>
      .cls-1 {
        fill: #000;
        stroke-width: 0px;
      }
    </style>
  </defs>
  <path class="cls-1" d="M185.1,496V45.5h-72.8v419h-10.4V34.7h82.7V4c72,8.5,141.2,28.8,213.7,31.9v430c-4-1.4-7.3-2.5-11-3.7-1.7-.6-3.7-.6-5.4-.3-26.8,4.5-53.9,9.3-80.7,13.8-26.5,4.5-53.1,9.3-79.3,13.8-11.9,2-24,4.2-36.7,6.5h0ZM203.1,249.3c1.4,4.2,1.7,8.2,3.7,11.3,1.7,2.5,5.1,5.9,7.6,5.9s6.2-3.1,7.9-5.9c4.2-7.9,4-16.1-.8-23.7-4-5.9-9.9-6.2-13.6,0-2.3,3.7-3.4,8.5-4.8,12.4h0Z"/>
</svg>