<?xml version="1.0" encoding="UTF-8"?>
<svg id="Layer_1" data-name="Layer 1" xmlns="http://www.w3.org/2000/svg" version="1.1" viewBox="0 0 500 500">
  <defs>
    <style>
      .cls-1 {
        fill: #000;
        stroke-width: 0px;
      }
    </style>
  </defs>
  <path class="cls-1" d="M250,6.5C120.6,6.5,15.4,115.5,15.4,250s105.3,243.5,234.6,243.5,234.6-109,234.6-243.5S379.8,6.5,250,6.5ZM370.1,387.7v4.2c0,1.4-.5,2.8-1.4,4.2s-.9,2.3-1.9,3.7c-.9,1.4-1.4,2.3-2.3,3.2s-1.9,1.9-3.2,2.8c-.9.9-2.3,1.4-3.7,1.9s-2.3.9-3.7,1.4-2.8,0-4.2,0h-54.3c-1.4,0-2.8-.5-3.7-1.4-1.4-.5-2.3-1.4-3.7-1.9-.9-.9-2.3-1.9-3.2-2.8s-1.9-1.9-2.8-3.2-1.4-2.3-1.9-3.7-.9-2.8-1.4-4.2v-71.4c0-2.8-.5-5.6-1.4-8.3-1.4-2.8-2.8-5.6-4.6-8.3-1.9-2.3-4.2-4.6-7-6.5-2.8-1.9-5.6-2.8-8.3-3.7-2.8-.9-6-1.4-9.3-.9-3.2,0-6,.9-8.8,1.9-2.8.9-5.6,2.8-7.9,4.6s-4.6,4.2-6.5,7-3.2,5.6-4.2,8.8c-.5,1.9-.9,4.2-.9,6v69.6c0,1.4-.5,2.8-1.4,4.2s-.9,2.3-1.9,3.7c-.9.9-1.4,2.3-2.8,3.2-.9.9-1.9,1.9-3.2,2.8-.9.9-2.3,1.4-3.7,1.9s-2.3.9-3.7,1.4-2.8,0-4.2,0h-54.3c-1.4,0-2.8-.5-3.7-1.4-1.4-.5-2.3-1.4-3.7-1.9-.9-.9-2.3-1.9-3.2-2.8s-1.9-2.3-2.8-3.2c-.9-1.4-1.4-2.3-1.9-3.7s-.9-2.8-1.4-4.2v-113.1c0-2.8.5-6,1.9-8.8,1.4-2.8,2.8-5.1,5.1-7l100.6-96c1.9-1.9,4.2-3.2,6.5-4.2s5.1-1.4,7.4-1.4,5.1.5,7.4,1.4,4.6,2.3,6.5,4.2c33.4,31.5,66.8,63.1,100.2,95.1,2.3,1.9,3.7,4.6,5.1,7,1.4,2.8,1.9,5.6,1.9,8.8v110.8l-.5.5ZM401.6,274.1h0c-5.1,0-9.7-1.9-13.4-6l-125.7-130.3c-.9-.9-1.9-1.9-2.8-2.3-.9-.9-2.3-1.4-3.2-1.9-1.4-.5-2.3-.9-3.7-.9h-7.4c-1.4,0-2.3.5-3.7.9s-2.3.9-3.2,1.9c-.9.9-1.9,1.4-2.8,2.3l-125.7,130.3c-3.7,3.7-8.3,6-13.4,6-17.2,0-26-21.3-13.4-34.3L235.6,79.8c.9-.9,1.9-1.9,2.8-2.3.9-.9,2.3-1.4,3.2-1.9,1.4-.5,2.3-.9,3.7-.9h7.4c1.4,0,2.3.5,3.7.9s2.3.9,3.2,1.9c.9.9,1.9,1.4,2.8,2.3l58.4,61.2v-33.4c0-1.9,0-3.7.9-5.6s1.9-3.7,3.2-5.1,2.8-2.3,4.6-3.2,3.7-.9,5.6-.9h9.7c1.9,0,3.7,0,5.6.9s3.2,1.9,4.6,3.2,2.3,3.2,3.2,5.1c.9,1.9.9,3.7.9,5.6v74.2l55.2,58c12.1,12.5,3.2,34.3-13.9,34.3h.9Z"/>
</svg>